<mxfile host="app.diagrams.net" modified="2023-02-27T08:38:52.012Z" agent="5.0 (X11)" etag="DDuRsM68nDzNvGdQLtFE" version="20.8.23" type="github">
  <diagram id="C5RBs43oDa-KdzZeNtuy" name="Page-1">
    <mxGraphModel dx="989" dy="548" grid="1" gridSize="10" guides="1" tooltips="1" connect="1" arrows="1" fold="1" page="1" pageScale="1" pageWidth="827" pageHeight="1169" math="0" shadow="0">
      <root>
        <mxCell id="WIyWlLk6GJQsqaUBKTNV-0" />
        <mxCell id="WIyWlLk6GJQsqaUBKTNV-1" parent="WIyWlLk6GJQsqaUBKTNV-0" />
        <mxCell id="W3cDg4ZiFDLBaahmUPJq-40" value="" style="rounded=0;whiteSpace=wrap;html=1;fillColor=none;dashed=1;" vertex="1" parent="WIyWlLk6GJQsqaUBKTNV-1">
          <mxGeometry y="130" width="540" height="300" as="geometry" />
        </mxCell>
        <mxCell id="W3cDg4ZiFDLBaahmUPJq-7" style="edgeStyle=orthogonalEdgeStyle;rounded=0;orthogonalLoop=1;jettySize=auto;html=1;exitX=0.5;exitY=1;exitDx=0;exitDy=0;entryX=0.5;entryY=0;entryDx=0;entryDy=0;" edge="1" parent="WIyWlLk6GJQsqaUBKTNV-1" source="WIyWlLk6GJQsqaUBKTNV-3" target="W3cDg4ZiFDLBaahmUPJq-1">
          <mxGeometry relative="1" as="geometry" />
        </mxCell>
        <mxCell id="W3cDg4ZiFDLBaahmUPJq-25" style="edgeStyle=orthogonalEdgeStyle;rounded=0;orthogonalLoop=1;jettySize=auto;html=1;exitX=1;exitY=0.5;exitDx=0;exitDy=0;entryX=0.5;entryY=1;entryDx=0;entryDy=0;entryPerimeter=0;" edge="1" parent="WIyWlLk6GJQsqaUBKTNV-1" source="WIyWlLk6GJQsqaUBKTNV-3" target="W3cDg4ZiFDLBaahmUPJq-24">
          <mxGeometry relative="1" as="geometry" />
        </mxCell>
        <mxCell id="WIyWlLk6GJQsqaUBKTNV-3" value="&lt;div&gt;InitState&lt;/div&gt;&lt;div&gt;exit / current_state = StateA&lt;br&gt;&lt;/div&gt;&lt;div&gt;&lt;br&gt;&lt;/div&gt;" style="rounded=1;whiteSpace=wrap;html=1;fontSize=12;glass=0;strokeWidth=1;shadow=0;fillColor=#f5f5f5;fontColor=#333333;strokeColor=#666666;" parent="WIyWlLk6GJQsqaUBKTNV-1" vertex="1">
          <mxGeometry x="160" y="60" width="190" height="40" as="geometry" />
        </mxCell>
        <mxCell id="W3cDg4ZiFDLBaahmUPJq-6" style="edgeStyle=orthogonalEdgeStyle;rounded=0;orthogonalLoop=1;jettySize=auto;html=1;exitX=0.5;exitY=1;exitDx=0;exitDy=0;" edge="1" parent="WIyWlLk6GJQsqaUBKTNV-1" source="W3cDg4ZiFDLBaahmUPJq-0" target="WIyWlLk6GJQsqaUBKTNV-3">
          <mxGeometry relative="1" as="geometry" />
        </mxCell>
        <mxCell id="W3cDg4ZiFDLBaahmUPJq-0" value="" style="ellipse;whiteSpace=wrap;html=1;fillColor=#000000;" vertex="1" parent="WIyWlLk6GJQsqaUBKTNV-1">
          <mxGeometry x="245" y="10" width="20" height="20" as="geometry" />
        </mxCell>
        <mxCell id="W3cDg4ZiFDLBaahmUPJq-8" style="edgeStyle=orthogonalEdgeStyle;rounded=0;orthogonalLoop=1;jettySize=auto;html=1;exitX=0.5;exitY=1;exitDx=0;exitDy=0;entryX=0.5;entryY=0;entryDx=0;entryDy=0;" edge="1" parent="WIyWlLk6GJQsqaUBKTNV-1" source="W3cDg4ZiFDLBaahmUPJq-1" target="W3cDg4ZiFDLBaahmUPJq-2">
          <mxGeometry relative="1" as="geometry" />
        </mxCell>
        <mxCell id="W3cDg4ZiFDLBaahmUPJq-1" value="&lt;div&gt;StateA &lt;br&gt;&lt;/div&gt;" style="rounded=1;whiteSpace=wrap;html=1;fontSize=12;glass=0;strokeWidth=1;shadow=0;fillColor=#f5f5f5;fontColor=#333333;strokeColor=#666666;" vertex="1" parent="WIyWlLk6GJQsqaUBKTNV-1">
          <mxGeometry x="160" y="150" width="190" height="40" as="geometry" />
        </mxCell>
        <mxCell id="W3cDg4ZiFDLBaahmUPJq-9" style="edgeStyle=orthogonalEdgeStyle;rounded=0;orthogonalLoop=1;jettySize=auto;html=1;exitX=0.5;exitY=1;exitDx=0;exitDy=0;entryX=0.5;entryY=0;entryDx=0;entryDy=0;" edge="1" parent="WIyWlLk6GJQsqaUBKTNV-1" source="W3cDg4ZiFDLBaahmUPJq-2" target="W3cDg4ZiFDLBaahmUPJq-3">
          <mxGeometry relative="1" as="geometry" />
        </mxCell>
        <mxCell id="W3cDg4ZiFDLBaahmUPJq-13" style="edgeStyle=orthogonalEdgeStyle;rounded=0;orthogonalLoop=1;jettySize=auto;html=1;exitX=0;exitY=0.25;exitDx=0;exitDy=0;entryX=0;entryY=0.75;entryDx=0;entryDy=0;" edge="1" parent="WIyWlLk6GJQsqaUBKTNV-1" source="W3cDg4ZiFDLBaahmUPJq-2" target="W3cDg4ZiFDLBaahmUPJq-1">
          <mxGeometry relative="1" as="geometry" />
        </mxCell>
        <mxCell id="W3cDg4ZiFDLBaahmUPJq-2" value="&lt;div&gt;StateA1&lt;/div&gt;&lt;div&gt;&lt;br&gt;&lt;/div&gt;" style="rounded=1;whiteSpace=wrap;html=1;fontSize=12;glass=0;strokeWidth=1;shadow=0;" vertex="1" parent="WIyWlLk6GJQsqaUBKTNV-1">
          <mxGeometry x="160" y="220" width="190" height="40" as="geometry" />
        </mxCell>
        <mxCell id="W3cDg4ZiFDLBaahmUPJq-10" style="edgeStyle=orthogonalEdgeStyle;rounded=0;orthogonalLoop=1;jettySize=auto;html=1;exitX=0.5;exitY=1;exitDx=0;exitDy=0;" edge="1" parent="WIyWlLk6GJQsqaUBKTNV-1" source="W3cDg4ZiFDLBaahmUPJq-3" target="W3cDg4ZiFDLBaahmUPJq-4">
          <mxGeometry relative="1" as="geometry" />
        </mxCell>
        <mxCell id="W3cDg4ZiFDLBaahmUPJq-14" style="edgeStyle=orthogonalEdgeStyle;rounded=0;orthogonalLoop=1;jettySize=auto;html=1;exitX=0;exitY=0.25;exitDx=0;exitDy=0;entryX=0;entryY=0.5;entryDx=0;entryDy=0;" edge="1" parent="WIyWlLk6GJQsqaUBKTNV-1" source="W3cDg4ZiFDLBaahmUPJq-3" target="W3cDg4ZiFDLBaahmUPJq-1">
          <mxGeometry relative="1" as="geometry" />
        </mxCell>
        <mxCell id="W3cDg4ZiFDLBaahmUPJq-3" value="StateA2" style="rounded=1;whiteSpace=wrap;html=1;fontSize=12;glass=0;strokeWidth=1;shadow=0;" vertex="1" parent="WIyWlLk6GJQsqaUBKTNV-1">
          <mxGeometry x="160" y="290" width="190" height="40" as="geometry" />
        </mxCell>
        <mxCell id="W3cDg4ZiFDLBaahmUPJq-11" style="edgeStyle=orthogonalEdgeStyle;rounded=0;orthogonalLoop=1;jettySize=auto;html=1;exitX=1;exitY=0.5;exitDx=0;exitDy=0;entryX=0;entryY=0.5;entryDx=0;entryDy=0;" edge="1" parent="WIyWlLk6GJQsqaUBKTNV-1" source="W3cDg4ZiFDLBaahmUPJq-4" target="W3cDg4ZiFDLBaahmUPJq-5">
          <mxGeometry relative="1" as="geometry">
            <Array as="points">
              <mxPoint x="480" y="380" />
              <mxPoint x="480" y="170" />
            </Array>
          </mxGeometry>
        </mxCell>
        <mxCell id="W3cDg4ZiFDLBaahmUPJq-15" style="edgeStyle=orthogonalEdgeStyle;rounded=0;orthogonalLoop=1;jettySize=auto;html=1;exitX=0;exitY=0.25;exitDx=0;exitDy=0;entryX=0;entryY=0.25;entryDx=0;entryDy=0;" edge="1" parent="WIyWlLk6GJQsqaUBKTNV-1" source="W3cDg4ZiFDLBaahmUPJq-4" target="W3cDg4ZiFDLBaahmUPJq-1">
          <mxGeometry relative="1" as="geometry" />
        </mxCell>
        <mxCell id="W3cDg4ZiFDLBaahmUPJq-4" value="StateA3" style="rounded=1;whiteSpace=wrap;html=1;fontSize=12;glass=0;strokeWidth=1;shadow=0;" vertex="1" parent="WIyWlLk6GJQsqaUBKTNV-1">
          <mxGeometry x="160" y="360" width="190" height="40" as="geometry" />
        </mxCell>
        <mxCell id="W3cDg4ZiFDLBaahmUPJq-37" style="edgeStyle=orthogonalEdgeStyle;rounded=0;orthogonalLoop=1;jettySize=auto;html=1;exitX=1;exitY=0.5;exitDx=0;exitDy=0;entryX=1;entryY=0.5;entryDx=0;entryDy=0;entryPerimeter=0;" edge="1" parent="WIyWlLk6GJQsqaUBKTNV-1" source="W3cDg4ZiFDLBaahmUPJq-5" target="W3cDg4ZiFDLBaahmUPJq-24">
          <mxGeometry relative="1" as="geometry" />
        </mxCell>
        <mxCell id="W3cDg4ZiFDLBaahmUPJq-5" value="StateB" style="rounded=1;whiteSpace=wrap;html=1;fontSize=12;glass=0;strokeWidth=1;shadow=0;fillColor=#f5f5f5;fontColor=#333333;strokeColor=#666666;" vertex="1" parent="WIyWlLk6GJQsqaUBKTNV-1">
          <mxGeometry x="570" y="150" width="190" height="40" as="geometry" />
        </mxCell>
        <mxCell id="W3cDg4ZiFDLBaahmUPJq-17" value="goto_A / backup = current_state.clone()" style="text;html=1;align=center;verticalAlign=middle;resizable=0;points=[];autosize=1;strokeColor=none;fillColor=none;" vertex="1" parent="WIyWlLk6GJQsqaUBKTNV-1">
          <mxGeometry x="250" y="100" width="230" height="30" as="geometry" />
        </mxCell>
        <mxCell id="W3cDg4ZiFDLBaahmUPJq-22" value="&lt;div&gt;fail / current_state = &lt;br&gt;&lt;/div&gt;&lt;div&gt;backup.clone()&lt;/div&gt;" style="text;html=1;align=center;verticalAlign=middle;resizable=0;points=[];autosize=1;strokeColor=none;fillColor=none;" vertex="1" parent="WIyWlLk6GJQsqaUBKTNV-1">
          <mxGeometry x="10" y="250" width="130" height="40" as="geometry" />
        </mxCell>
        <mxCell id="W3cDg4ZiFDLBaahmUPJq-23" value="" style="strokeWidth=2;html=1;shape=mxgraph.flowchart.start_2;whiteSpace=wrap;fillColor=#000000;" vertex="1" parent="WIyWlLk6GJQsqaUBKTNV-1">
          <mxGeometry x="475" y="15" width="10" height="10" as="geometry" />
        </mxCell>
        <mxCell id="W3cDg4ZiFDLBaahmUPJq-24" value="" style="strokeWidth=2;html=1;shape=mxgraph.flowchart.start_2;whiteSpace=wrap;fillColor=none;" vertex="1" parent="WIyWlLk6GJQsqaUBKTNV-1">
          <mxGeometry x="470" y="10" width="20" height="20" as="geometry" />
        </mxCell>
        <mxCell id="W3cDg4ZiFDLBaahmUPJq-28" value="exit" style="text;html=1;strokeColor=none;fillColor=none;align=center;verticalAlign=middle;whiteSpace=wrap;rounded=0;" vertex="1" parent="WIyWlLk6GJQsqaUBKTNV-1">
          <mxGeometry x="340" y="60" width="60" height="30" as="geometry" />
        </mxCell>
        <mxCell id="W3cDg4ZiFDLBaahmUPJq-29" value="always / current_state = StateA1" style="text;html=1;align=center;verticalAlign=middle;resizable=0;points=[];autosize=1;strokeColor=none;fillColor=none;" vertex="1" parent="WIyWlLk6GJQsqaUBKTNV-1">
          <mxGeometry x="250" y="190" width="200" height="30" as="geometry" />
        </mxCell>
        <mxCell id="W3cDg4ZiFDLBaahmUPJq-30" value="goto_A2 / current_state = StateA2" style="text;html=1;align=center;verticalAlign=middle;resizable=0;points=[];autosize=1;strokeColor=none;fillColor=none;" vertex="1" parent="WIyWlLk6GJQsqaUBKTNV-1">
          <mxGeometry x="250" y="260" width="200" height="30" as="geometry" />
        </mxCell>
        <mxCell id="W3cDg4ZiFDLBaahmUPJq-33" value="goto_A3 / current_state = StateA3" style="text;html=1;align=center;verticalAlign=middle;resizable=0;points=[];autosize=1;strokeColor=none;fillColor=none;" vertex="1" parent="WIyWlLk6GJQsqaUBKTNV-1">
          <mxGeometry x="255" y="330" width="200" height="30" as="geometry" />
        </mxCell>
        <mxCell id="W3cDg4ZiFDLBaahmUPJq-36" value="&lt;div&gt;goto_B / current_state = StateB;&lt;/div&gt;&lt;div&gt;backup = current_state.clone()&lt;br&gt; &lt;/div&gt;" style="text;html=1;align=center;verticalAlign=middle;resizable=0;points=[];autosize=1;strokeColor=none;fillColor=none;" vertex="1" parent="WIyWlLk6GJQsqaUBKTNV-1">
          <mxGeometry x="350" y="380" width="190" height="40" as="geometry" />
        </mxCell>
        <mxCell id="W3cDg4ZiFDLBaahmUPJq-39" value="exit" style="text;html=1;strokeColor=none;fillColor=none;align=center;verticalAlign=middle;whiteSpace=wrap;rounded=0;" vertex="1" parent="WIyWlLk6GJQsqaUBKTNV-1">
          <mxGeometry x="767" y="130" width="60" height="30" as="geometry" />
        </mxCell>
        <mxCell id="W3cDg4ZiFDLBaahmUPJq-42" value="" style="rounded=0;whiteSpace=wrap;html=1;fillColor=none;dashed=1;" vertex="1" parent="WIyWlLk6GJQsqaUBKTNV-1">
          <mxGeometry x="550" y="130" width="217" height="300" as="geometry" />
        </mxCell>
      </root>
    </mxGraphModel>
  </diagram>
</mxfile>
